<svg xmlns="http://www.w3.org/2000/svg" width="200" height="220" viewBox="0 0 200 220">
  <rect width="200" height="220" fill="white" rx="16"/>
  <path d="M 138 175 Q 162 158 156 138" fill="none" stroke="#333" stroke-width="7" stroke-linecap="round" stroke-linejoin="round"/><path d="M 138 175 Q 162 158 156 138" fill="none" stroke="#F0F0F0" stroke-width="4" stroke-linecap="round" stroke-linejoin="round"/><ellipse cx="100" cy="162" rx="42" ry="44" fill="#FFF" stroke="#333" stroke-width="2"/><circle cx="100" cy="82" r="48" fill="#FFF" stroke="#333" stroke-width="2"/><ellipse cx="62" cy="96" rx="20" ry="32" fill="#F0F0F0" stroke="#333" stroke-width="2" transform="rotate(-12,62,96)"/><ellipse cx="138" cy="96" rx="20" ry="32" fill="#F0F0F0" stroke="#333" stroke-width="2" transform="rotate(12,138,96)"/><circle cx="100" cy="82" r="48" fill="#FFF" stroke="#333" stroke-width="2"/><ellipse cx="100" cy="96" rx="18" ry="12" fill="#F0F0F0" stroke="#333" stroke-width="1.5"/><path d="M 76 78 A 8 8 0 0 1 92 78" fill="none" stroke="#333" stroke-width="2.5" stroke-linecap="round" stroke-linejoin="round"/><path d="M 108 78 A 8 8 0 0 1 124 78" fill="none" stroke="#333" stroke-width="2.5" stroke-linecap="round" stroke-linejoin="round"/><path d="M 86 102 Q 100 116 114 102" fill="none" stroke="#333" stroke-width="2.5" stroke-linecap="round" stroke-linejoin="round"/><circle cx="100" cy="90" r="3" fill="#333" stroke="none" stroke-width="2"/>
  
</svg>