<svg xmlns="http://www.w3.org/2000/svg" width="200" height="220" viewBox="0 0 200 220">
  <rect width="200" height="220" fill="white" rx="16"/>
  <ellipse cx="100" cy="166" rx="46" ry="40" fill="#FFF" stroke="#333" stroke-width="2"/><circle cx="100" cy="82" r="50" fill="#FFF" stroke="#333" stroke-width="2"/><circle cx="66" cy="40" r="16" fill="#F0F0F0" stroke="#333" stroke-width="2"/><circle cx="134" cy="40" r="16" fill="#F0F0F0" stroke="#333" stroke-width="2"/><circle cx="66" cy="40" r="10" fill="#DDD" stroke="none" stroke-width="2"/><circle cx="134" cy="40" r="10" fill="#DDD" stroke="none" stroke-width="2"/><ellipse cx="66" cy="94" rx="18" ry="16" fill="#F0F0F0" stroke="#333" stroke-width="1.5"/><ellipse cx="134" cy="94" rx="18" ry="16" fill="#F0F0F0" stroke="#333" stroke-width="1.5"/><ellipse cx="100" cy="91" rx="6" ry="4" fill="#DDD" stroke="#333" stroke-width="1.5"/><path d="M 76 78 A 8 8 0 0 1 92 78" fill="none" stroke="#333" stroke-width="2.5" stroke-linecap="round" stroke-linejoin="round"/><path d="M 108 78 A 8 8 0 0 1 124 78" fill="none" stroke="#333" stroke-width="2.5" stroke-linecap="round" stroke-linejoin="round"/><path d="M 86 102 Q 100 116 114 102" fill="none" stroke="#333" stroke-width="2.5" stroke-linecap="round" stroke-linejoin="round"/><circle cx="100" cy="90" r="3" fill="#333" stroke="none" stroke-width="2"/>
  
</svg>