<svg xmlns="http://www.w3.org/2000/svg" width="200" height="220" viewBox="0 0 200 220">
  <rect width="200" height="220" fill="white" rx="16"/>
  <ellipse cx="100" cy="166" rx="46" ry="40" fill="#FFF" stroke="#333" stroke-width="2"/><circle cx="100" cy="82" r="50" fill="#FFF" stroke="#333" stroke-width="2"/><circle cx="66" cy="40" r="16" fill="#F0F0F0" stroke="#333" stroke-width="2"/><circle cx="134" cy="40" r="16" fill="#F0F0F0" stroke="#333" stroke-width="2"/><circle cx="66" cy="40" r="10" fill="#DDD" stroke="none" stroke-width="2"/><circle cx="134" cy="40" r="10" fill="#DDD" stroke="none" stroke-width="2"/><ellipse cx="66" cy="94" rx="18" ry="16" fill="#F0F0F0" stroke="#333" stroke-width="1.5"/><ellipse cx="134" cy="94" rx="18" ry="16" fill="#F0F0F0" stroke="#333" stroke-width="1.5"/><ellipse cx="100" cy="91" rx="6" ry="4" fill="#DDD" stroke="#333" stroke-width="1.5"/><path d="M 84 69 L 86 76 L 93 78 L 86 80 L 84 87 L 82 80 L 75 78 L 82 76 Z" fill="#333" stroke="none" stroke-width="2.5" stroke-linecap="round" stroke-linejoin="round"/><path d="M 116 69 L 118 76 L 125 78 L 118 80 L 116 87 L 114 80 L 107 78 L 114 76 Z" fill="#333" stroke="none" stroke-width="2.5" stroke-linecap="round" stroke-linejoin="round"/><path d="M 82 100 Q 100 120 118 100" fill="none" stroke="#333" stroke-width="2.5" stroke-linecap="round" stroke-linejoin="round"/><circle cx="100" cy="90" r="3" fill="#333" stroke="none" stroke-width="2"/><path d="M 80 52 C 72 44 66 52 80 60 C 94 52 88 44 80 52 Z" fill="#333" stroke="none" stroke-width="2.5" stroke-linecap="round" stroke-linejoin="round"/><path d="M 120 48 C 112 40 106 48 120 56 C 134 48 128 40 120 48 Z" fill="#333" stroke="none" stroke-width="2.5" stroke-linecap="round" stroke-linejoin="round"/>
  
</svg>