<svg xmlns="http://www.w3.org/2000/svg" width="200" height="220" viewBox="0 0 200 220">
  <rect width="200" height="220" fill="white" rx="16"/>
  <ellipse cx="100" cy="162" rx="42" ry="44" fill="#FFF" stroke="#333" stroke-width="2"/><ellipse cx="100" cy="168" rx="26" ry="28" fill="#DDD" stroke="none" stroke-width="2"/><circle cx="100" cy="82" r="48" fill="#FFF" stroke="#333" stroke-width="2"/><circle cx="66" cy="44" r="20" fill="#333" stroke="#333" stroke-width="2"/><circle cx="134" cy="44" r="20" fill="#333" stroke="#333" stroke-width="2"/><circle cx="66" cy="44" r="10" fill="#888" stroke="none" stroke-width="2"/><circle cx="134" cy="44" r="10" fill="#888" stroke="none" stroke-width="2"/><ellipse cx="84" cy="78" rx="14" ry="12" fill="#333" stroke="none" stroke-width="2" transform="rotate(-10,84,78)"/><ellipse cx="116" cy="78" rx="14" ry="12" fill="#333" stroke="none" stroke-width="2" transform="rotate(10,116,78)"/><line x1="78" y1="72" x2="90" y2="84" stroke="#FFF" stroke-width="2.5" stroke-linecap="round"/><line x1="90" y1="72" x2="78" y2="84" stroke="#FFF" stroke-width="2.5" stroke-linecap="round"/><line x1="110" y1="72" x2="122" y2="84" stroke="#FFF" stroke-width="2.5" stroke-linecap="round"/><line x1="122" y1="72" x2="110" y2="84" stroke="#FFF" stroke-width="2.5" stroke-linecap="round"/><path d="M 82 106 Q 88 114 94 108 Q 100 102 106 108 Q 112 114 118 106" fill="none" stroke="#333" stroke-width="2.5" stroke-linecap="round" stroke-linejoin="round"/><circle cx="100" cy="90" r="3" fill="#333" stroke="none" stroke-width="2"/><rect x="88" y="56" width="24" height="10" fill="#EEE" stroke="#333" stroke-width="1.5" rx="2"/><line x1="100" y1="56" x2="100" y2="66" stroke="#AAA" stroke-width="1" stroke-linecap="round"/><line x1="88" y1="61" x2="112" y2="61" stroke="#AAA" stroke-width="1" stroke-linecap="round"/>
  <rect width="200" height="220" fill="#888" fill-opacity="0.15"/>
</svg>